<svg width="187" height="26" viewBox="0 0 187 26" fill="none" xmlns="http://www.w3.org/2000/svg">
<g clip-path="url(#clip0_5917_19100)">
<path d="M39.1509 25.6194H36.2463V24.037C35.3185 25.2388 33.9469 26 32.0307 26C28.2992 26 25.3543 23.0555 25.3543 19.0293C25.3543 15.0031 28.3193 11.9584 32.0307 11.9584C33.9469 11.9584 35.3185 12.7196 36.2463 13.9214V12.2989H39.1509V25.6194ZM28.3798 18.9692C28.3798 21.3128 29.9128 23.2157 32.4341 23.2157C34.8344 23.2157 36.4884 21.3729 36.4884 18.9692C36.4884 16.5655 34.8546 14.7226 32.4341 14.7226C29.8523 14.6826 28.3798 16.6456 28.3798 18.9692ZM51.1523 14.963H46.0088V20.7319C46.0088 22.5347 46.9367 23.2357 48.1469 23.2357C49.0747 23.2357 50.0631 22.8552 50.8296 22.3143L51.9793 24.6579C50.8901 25.359 49.579 25.9599 47.8645 25.9599C44.8591 25.9599 43.0438 24.3374 43.0438 20.792V14.983H40.3611V12.379H43.0438V8.31278H46.0088V12.339H51.1523V14.963ZM56.1344 13.9214C57.2236 12.3991 58.8776 12.0185 60.1887 12.0185C63.3554 12.0185 65.6145 14.2018 65.6145 17.2866V25.5994H62.6495V18.208C62.6495 15.9846 61.4997 14.7226 59.523 14.7226C57.6674 14.7226 56.0739 15.9646 56.0739 18.208V25.5593H53.1088V5.64868H56.0739V13.9214H56.1344ZM80.5608 18.9291C80.5608 19.3097 80.5003 19.6903 80.5003 20.0108H70.637C71.0202 22.3944 72.7145 23.376 74.6307 23.376C75.9418 23.376 77.3739 22.8351 78.5236 21.9538L79.9961 24.0169C78.3623 25.379 76.5469 25.8598 74.5299 25.8598C70.5361 25.8598 67.6921 23.0955 67.6921 18.8891C67.6921 14.7627 70.4353 11.9183 74.3685 11.9183C77.979 11.9584 80.5608 14.7827 80.5608 18.9291ZM70.637 17.8274H77.5958C77.273 15.7642 76.0628 14.5624 74.2071 14.5624C72.1296 14.5824 70.9799 15.8844 70.637 17.8274ZM95.0634 17.2465V25.5593H92.0983V18.208C92.0983 15.9846 90.9486 14.7226 88.9719 14.7226C87.1162 14.7226 85.5228 15.9646 85.5228 18.208V25.5593H82.5577V12.339H85.4622V13.9615C86.5515 12.379 88.2054 11.9985 89.577 11.9985C92.8245 11.9584 95.0634 14.1417 95.0634 17.2465ZM110.776 25.6194H107.872V24.037C106.944 25.2388 105.572 26 103.656 26C99.9245 26 96.9796 23.0555 96.9796 19.0293C96.9796 15.0031 99.9446 11.9584 103.656 11.9584C105.572 11.9584 106.944 12.7196 107.872 13.9214V12.2989H110.776V25.6194ZM100.005 18.9692C100.005 21.3128 101.538 23.2157 104.059 23.2157C106.46 23.2157 108.114 21.3729 108.114 18.9692C108.114 16.5655 106.48 14.7226 104.059 14.7226C101.538 14.6826 100.005 16.6456 100.005 18.9692ZM115.375 14.7827C116.424 13.0401 118.28 12.339 120.034 12.339C123.322 12.339 125.561 14.3421 125.561 17.6071V25.5994H123.968V18.1079C123.968 15.5038 122.435 13.8613 119.752 13.8613C117.291 13.8613 115.375 15.604 115.375 18.208V25.6595H113.782V5.64868H115.375V14.7827ZM140.528 18.9692C140.528 19.1895 140.528 19.4099 140.467 19.6302H129.454C129.676 22.6749 131.854 24.4176 134.537 24.4176C136.352 24.4176 137.825 23.7165 138.974 22.5747L139.842 23.6564C138.208 25.339 136.332 25.8397 134.476 25.8397C130.644 25.8397 127.861 23.1156 127.861 19.0894C127.861 15.1834 130.644 12.339 134.376 12.339C137.845 12.339 140.467 15.1233 140.528 18.9692ZM129.454 18.2681H138.874C138.652 15.5439 136.796 13.7011 134.335 13.7011C131.653 13.7612 129.777 15.6641 129.454 18.2681ZM155.313 25.6194H153.719V23.1156C152.67 24.7381 150.936 25.8397 148.515 25.8397C144.844 25.8397 141.94 23.0154 141.94 19.0894C141.94 15.1633 144.844 12.339 148.515 12.339C150.915 12.339 152.67 13.4206 153.719 15.0632V12.5593H155.313V25.6194ZM143.533 19.0894C143.533 22.0339 145.671 24.3174 148.676 24.3174C151.642 24.3174 153.759 22.094 153.759 19.0894C153.759 16.0847 151.642 13.8213 148.676 13.8213C145.671 13.8213 143.533 16.1448 143.533 19.0894ZM160.113 25.6194H158.54V5.64868H160.133V25.6194H160.113ZM172.336 13.9815H166.265V21.1125C166.265 23.3359 167.415 24.3174 169.17 24.3174C170.319 24.3174 171.368 23.9368 172.135 23.3359L172.901 24.5377C171.973 25.2989 170.662 25.8397 169.069 25.8397C166.326 25.8397 164.692 24.3174 164.692 21.1726V13.9815H161.686V12.5193H164.692V8.27272H166.285V12.5193H172.357L172.336 13.9815ZM176.007 14.7827C177.056 13.0401 178.912 12.339 180.667 12.339C183.955 12.339 186.194 14.3421 186.194 17.6071V25.5994H184.6V18.1079C184.6 15.5038 183.067 13.8613 180.384 13.8613C177.924 13.8613 176.007 15.604 176.007 18.208V25.6595H174.414V5.64868H176.007V14.7827Z" fill="black"/>
<path d="M9.70199 12.2989C9.70199 12.2989 7.12017 9.19415 7.07983 5.76888C7.01932 2.38367 9.48012 0 9.48012 0C9.48012 0 12.0619 3.10478 12.1023 6.53005C12.1628 9.89522 9.70199 12.2989 9.70199 12.2989Z" fill="black"/>
<path d="M23.4381 8.43302C23.4381 8.43302 23.7205 15.2836 20.3117 20.0108C16.8625 24.678 10.9929 25.4993 10.9929 25.4993C10.9929 25.4993 10.7105 18.6487 14.1193 13.9215C17.5281 9.19419 23.4381 8.43302 23.4381 8.43302ZM13.8571 7.61175C13.8571 8.53317 14.5631 9.23425 15.4909 9.23425C16.4188 9.23425 17.1247 8.53317 17.1247 7.61175C17.1247 6.69034 16.4188 5.98926 15.4909 5.98926C14.5631 5.98926 13.8571 6.75043 13.8571 7.61175Z" fill="black"/>
<path d="M9.58099 19.3498C9.58099 19.3097 9.58099 19.3097 9.58099 19.3498C9.58099 17.9276 9.35912 13.8613 7.18071 10.8567C4.49804 7.29123 2.50731e-05 6.69031 2.50731e-05 6.69031C2.50731e-05 6.69031 -0.22185 11.9584 2.42048 15.5439C4.27616 18.1079 7.1202 19.1294 8.61281 19.51V25.1587C8.61281 25.4392 8.83469 25.6395 9.0969 25.6395C9.35912 25.6395 9.58099 25.4191 9.58099 25.1587V19.3498Z" fill="black"/>
</g>
<defs>
<clipPath id="clip0_5917_19100">
<rect width="186.194" height="26" fill="white"/>
</clipPath>
</defs>
</svg>
