<svg width="106" height="30" viewBox="0 0 106 30" fill="none" xmlns="http://www.w3.org/2000/svg">
<g clip-path="url(#clip0_6101_19407)">
<path d="M28.1616 11.4706C28.1616 11.4706 30.9616 9.08824 34.3741 9.08824V13.6765C27.7241 13.5882 28.1616 18.9706 28.1616 18.9706V29.5588H24.0491V9.44118H28.1616V11.4706ZM52.3116 9.44118H56.3366V20.6471C56.3366 25.7647 52.3116 30.0882 47.2366 30.0882C42.1616 30.0882 38.1366 25.7647 38.1366 20.6471V9.44118H42.1616V20.6471C42.1616 23.4706 44.4366 25.8529 47.2366 25.8529C50.0366 25.8529 52.3116 23.4706 52.3116 20.6471V9.44118ZM60.3616 29.5588V9.44118H64.4741V29.6471H60.3616V29.5588ZM11.8866 13.1471C8.47409 13.1471 5.67409 15.9706 5.67409 19.4118C5.67409 22.8529 8.47409 25.6765 11.8866 25.6765C13.9866 25.6765 15.8241 24.6176 17.0491 22.9412L20.2866 25.4118C18.2741 28.1471 15.2116 29.8235 11.8866 29.8235C6.19909 29.9118 1.64909 25.2353 1.64909 19.4118C1.64909 13.5882 6.28659 9 11.8866 9C15.2116 9 18.4491 10.6765 20.2866 13.4118L17.0491 15.8824C15.9116 14.2059 13.9866 13.1471 11.8866 13.1471ZM89.4116 17.5588H101.312C100.174 12.6176 95.3616 12.7941 95.3616 12.7941C95.3616 12.7941 90.9866 12.4412 89.4116 17.5588ZM95.2741 9.08824C95.2741 9.08824 105.774 8.73529 105.249 21H89.3241C89.6741 22.5 90.3741 23.7353 91.5116 24.7941C92.6491 25.8529 94.1366 26.3824 95.7991 26.3824C95.7991 26.3824 99.2116 26.5588 101.224 23.6471L104.199 25.8529C103.412 27 102.099 27.9706 100.349 28.8529C98.8616 29.5588 97.1116 30 95.4491 30C89.7616 30 85.4741 25.3235 85.4741 19.5882C85.3866 13.7647 89.7616 9.08824 95.2741 9.08824ZM80.8366 19.4118C80.8366 19.4118 83.0241 20.7353 82.9366 23.8235C82.9366 23.8235 83.1116 28.1471 78.3866 29.5588C78.3866 29.5588 72.7866 31.4118 68.2366 26.8235L70.3366 23.9118C74.9741 27.7941 78.0366 25.5882 78.0366 25.5882C78.5616 25.1471 78.8241 24.6176 78.8241 24C78.8241 22.4118 76.8116 21.8824 76.8116 21.8824C76.1991 21.7059 75.5866 21.4412 74.7991 21.2647C74.7991 21.2647 72.3491 20.6471 70.5116 19.5C69.8991 19.0588 69.3741 18.5294 68.9366 17.8235C68.4991 17.1176 68.3241 16.2353 68.3241 15.1765C68.3241 15.1765 68.1491 11.2059 71.8241 9.52941C71.8241 9.52941 76.9866 7.32353 81.7991 11.2059L79.6991 14.2941C77.5116 12.6176 75.3241 12.7059 75.3241 12.7059C74.3616 12.7059 73.7491 12.8824 73.2241 13.3235C72.7866 13.7647 72.5241 14.1176 72.5241 14.6471C72.5241 14.6471 72.3491 15.8824 74.5366 16.7647C75.1491 16.9412 75.7616 17.2059 76.5491 17.3824C77.2491 17.5588 78.0366 17.9118 78.7366 18.0882C79.5241 18.6176 80.2241 19.0588 80.8366 19.4118ZM62.3741 0C63.9491 0 65.1741 1.23529 65.1741 2.91176C65.1741 4.58824 63.9491 5.82353 62.3741 5.82353C60.7991 5.82353 59.5741 4.58824 59.5741 2.91176C59.5741 1.23529 60.7991 0 62.3741 0Z" fill="black"/>
</g>
<defs>
<clipPath id="clip0_6101_19407">
<rect width="105" height="30" fill="white" transform="translate(0.949097)"/>
</clipPath>
</defs>
</svg>
