<svg width="137" height="34" viewBox="0 0 137 34" fill="none" xmlns="http://www.w3.org/2000/svg">
<path d="M0.193542 0V33.908L136.949 34V0H0.193542V0Z" fill="#323339"/>
<path d="M54.8728 8.13344L47.2142 19.472C46.4177 20.672 45.0203 21.3973 43.5578 21.3973C41.1762 21.3973 39.2048 19.4409 39.2048 17.0801C39.2048 14.6846 41.1762 12.7318 43.5745 12.7318C43.8122 12.7013 44.1311 12.668 44.3535 12.668C46.0068 12.668 47.6911 13.3615 48.8355 14.5281L51.1229 11.0623C49.3436 9.23629 46.7055 8.0675 44.0665 8.0675C39.1403 8.0675 34.6279 12.1318 34.6279 17.0468C34.6279 21.9328 38.6641 25.9326 43.5918 25.9326C45.9749 25.9326 48.3579 24.9247 50.0111 23.2537H55.2867L55.318 25.9326H59.8964V8.13344H54.873H54.8728ZM52.7776 19.3467L55.2867 15.8526L55.318 19.3467H52.7777H52.7776Z" fill="white"/>
<path d="M68.6682 25.9324H64.0913V12.2896H60.532V8.16298L72.2261 8.13324V12.2896H68.6682V25.9324V25.9324Z" fill="white"/>
<path d="M87.4833 8.13347L82.9064 8.13463L82.8745 14.78H77.4706L77.4364 8.13318H72.8631V25.9323H77.4704V18.9059H82.9062V25.9323H87.4831V8.13318L87.4833 8.13347Z" fill="white"/>
<path d="M124.16 8.13342V16.4164L117.868 8.13342L113.702 8.16241L113.671 14.6541C112.622 10.8731 109.03 8.13342 105.026 8.13342C100.1 8.13342 96.0634 12.1318 96.0634 17.0468C96.0634 18.6249 96.5397 20.2278 97.3014 21.6161H92.7672V8.13342H88.1033V25.9326H98.7654V23.4421C100.45 24.987 102.738 25.9326 105.026 25.9326C109.03 25.9326 112.559 23.2537 113.671 19.472L113.702 25.9326H118.313V17.2707L124.571 25.9326H128.733L128.739 8.13342H124.161H124.16ZM105.026 21.585C102.515 21.585 100.45 19.5691 100.45 17.0468C100.45 14.5592 102.515 12.5122 105.026 12.5122C107.57 12.5122 109.636 14.5592 109.636 17.0468C109.636 19.5691 107.57 21.585 105.026 21.585Z" fill="white"/>
<path d="M29.0928 21.6164V19.1252H34.0046L33.9959 14.7798H29.0928V12.5125H34.5068L34.4976 8.13373L24.0732 8.16271V14.2755C22.9926 10.9365 19.8768 8.47791 16.3175 8.16271L8.40367 8.13373V25.9321H16.35C19.8768 25.6184 22.9926 23.1613 24.0732 19.8527V25.9321H34.507L34.4977 21.6164H29.093H29.0928ZM19.0193 19.7571C18.7344 20.9556 17.5893 21.8041 16.3499 21.836H13.4262V12.2893H16.3499C17.5893 12.2893 18.7344 13.1755 19.0193 14.4023C19.3063 15.2218 19.465 16.1667 19.465 17.0471C19.465 17.963 19.3063 18.9064 19.0193 19.7571" fill="white"/>
</svg>
