<svg width="104" height="28" viewBox="0 0 104 28" fill="none" xmlns="http://www.w3.org/2000/svg">
<path d="M20.1738 11.9877H11.5108C11.282 11.9877 11.1105 12.1602 11.1105 12.3901V16.6448C11.1105 16.8747 11.282 17.0472 11.5108 17.0472H14.8845V22.3368C14.8845 22.3368 14.1125 22.5955 12.0254 22.5955C9.56658 22.5955 6.10708 21.6756 6.10708 14.0575C6.10708 6.41068 9.70953 5.40452 13.0833 5.40452C15.9995 5.40452 17.2575 5.92197 18.0581 6.1807C18.3154 6.26694 18.5441 6.00821 18.5441 5.77823L19.5162 1.66735C19.5162 1.55236 19.4876 1.43737 19.3732 1.35113C19.0302 1.12115 17.0574 0 12.0254 0C6.25004 0 0.331726 2.47228 0.331726 14.345C0.331726 26.2177 7.10776 28 12.8259 28C17.572 28 20.4311 25.9589 20.4311 25.9589C20.5455 25.9014 20.5741 25.729 20.5741 25.6427V12.3901C20.5741 12.1602 20.4025 11.9877 20.1738 11.9877Z" fill="black"/>
<path d="M64.7752 1.43738C64.7752 1.2074 64.6037 1.03491 64.375 1.03491H59.5145C59.2858 1.03491 59.1142 1.2074 59.1142 1.43738V10.8953H51.5091V1.43738C51.5091 1.2074 51.3375 1.03491 51.1088 1.03491H46.2484C46.0196 1.03491 45.8481 1.2074 45.8481 1.43738V27.0801C45.8481 27.3101 46.0196 27.4825 46.2484 27.4825H51.1088C51.3375 27.4825 51.5091 27.3101 51.5091 27.0801V16.0986H59.1142V27.0513C59.1142 27.2813 59.2858 27.4538 59.5145 27.4538H64.4036C64.6323 27.4538 64.8038 27.2813 64.8038 27.0513V1.43738H64.7752Z" fill="black"/>
<path d="M29.3512 4.80058C29.3512 3.04699 27.9502 1.60962 26.2062 1.60962C24.4621 1.60962 23.0612 3.04699 23.0612 4.80058C23.0612 6.55418 24.4621 7.99155 26.2062 7.99155C27.9502 7.99155 29.3512 6.55418 29.3512 4.80058Z" fill="black"/>
<path d="M29.0079 21.6466C29.0079 20.9854 29.0079 9.80261 29.0079 9.80261C29.0079 9.57263 28.8364 9.40015 28.6077 9.40015H23.7472C23.5185 9.40015 23.3184 9.63013 23.3184 9.8601C23.3184 9.8601 23.3184 24.0901 23.3184 26.8211C23.3184 27.3098 23.6329 27.4535 24.0331 27.4535C24.0331 27.4535 26.1203 27.4535 28.4075 27.4535C28.8936 27.4535 29.0079 27.2236 29.0079 26.7923C29.0079 25.9012 29.0079 22.3365 29.0079 21.6466Z" fill="black"/>
<path d="M83.2732 9.45728H78.4413C78.2126 9.45728 78.0411 9.62976 78.0411 9.85974V22.4224C78.0411 22.4224 76.8117 23.3135 75.0676 23.3135C73.3236 23.3135 72.8661 22.5086 72.8661 20.8125C72.8661 19.0877 72.8661 9.85974 72.8661 9.85974C72.8661 9.62976 72.6946 9.45728 72.4659 9.45728H67.5482C67.3195 9.45728 67.1479 9.62976 67.1479 9.85974C67.1479 9.85974 67.1479 16.5579 67.1479 21.6462C67.1479 26.7345 69.9784 27.9994 73.8668 27.9994C77.069 27.9994 79.6136 26.217 79.6136 26.217C79.6136 26.217 79.7279 27.1369 79.7851 27.2519C79.8423 27.3669 79.9853 27.4819 80.1282 27.4819H83.2446C83.4733 27.4819 83.6449 27.3094 83.6449 27.0795V9.85974C83.6735 9.62976 83.5019 9.45728 83.2732 9.45728Z" fill="black"/>
<path d="M96.4823 8.88296C93.7376 8.88296 91.8792 10.1191 91.8792 10.1191V1.43738C91.8792 1.2074 91.7077 1.03491 91.4789 1.03491H86.5899C86.3612 1.03491 86.1896 1.2074 86.1896 1.43738V27.0801C86.1896 27.3101 86.3612 27.4825 86.5899 27.4825H89.9922C90.1352 27.4825 90.2495 27.3963 90.3353 27.2526C90.4211 27.1088 90.5355 26.0739 90.5355 26.0739C90.5355 26.0739 92.5368 27.9713 96.3108 27.9713C100.742 27.9713 103.287 25.7002 103.287 17.7947C103.316 9.91787 99.2557 8.88296 96.4823 8.88296ZM94.5954 23.3142C92.9085 23.2567 91.7934 22.5092 91.7934 22.5092V14.3737C91.7934 14.3737 92.9085 13.6838 94.2809 13.5688C96.0249 13.4251 97.7118 13.9425 97.7118 18.1109C97.6832 22.5092 96.9398 23.4004 94.5954 23.3142Z" fill="black"/>
<path d="M43.0177 9.40019H39.3581V4.54187C39.3581 4.36938 39.2723 4.25439 39.0436 4.25439H34.0688C33.8686 4.25439 33.7829 4.34064 33.7829 4.51312V9.54392C33.7829 9.54392 31.2955 10.1476 31.1239 10.2051C30.9524 10.2626 30.838 10.4063 30.838 10.6076V13.7698C30.838 13.9998 31.0096 14.1723 31.2383 14.1723H33.7829C33.7829 14.1723 33.7829 17.4782 33.7829 21.7616C33.7829 27.3961 37.6998 27.9423 40.3588 27.9423C41.5596 27.9423 43.0177 27.5398 43.2465 27.4536C43.3894 27.3961 43.4752 27.2523 43.4752 27.0799V23.6014C43.4752 23.3714 43.275 23.1989 43.0749 23.1989C42.8748 23.1989 42.303 23.2852 41.7597 23.2852C39.9585 23.2852 39.3581 22.4515 39.3581 21.3591C39.3581 20.2667 39.3581 14.1435 39.3581 14.1435H43.0177C43.2465 14.1435 43.418 13.971 43.418 13.741V9.80265C43.418 9.60142 43.2465 9.40019 43.0177 9.40019Z" fill="black"/>
</svg>
