<svg width="140" height="28" viewBox="0 0 140 28" fill="none" xmlns="http://www.w3.org/2000/svg">
<path d="M76.9193 1.66577C76.8756 0.831387 77.5958 0.0463342 78.4288 0.0139173C79.0503 -0.00581475 79.6705 0.0125078 80.292 0.0153267C80.2963 7.33168 80.2892 14.6494 80.2963 21.9658C80.2878 22.1673 80.2737 22.3689 80.2498 22.5704C79.1405 22.5535 78.0313 22.5662 76.9221 22.562C76.9165 22.0799 76.915 21.5965 76.9165 21.1131C75.5225 22.1702 73.8665 22.9214 72.1103 23.0665C69.5917 23.34 66.9743 22.5 65.1068 20.7847C63.1872 19.0736 62.0315 16.5099 62.1118 13.9306C62.078 12.0053 62.7461 10.0899 63.8919 8.54942C65.4183 6.49166 67.844 5.1076 70.4091 4.92578C72.7347 4.69604 75.0856 5.46559 76.9165 6.89334C76.9207 5.15129 76.9136 3.40782 76.9193 1.66577ZM69.9158 8.55083C67.7326 9.12447 66.0173 11.1132 65.7876 13.3612C65.5861 14.9947 66.1639 16.7058 67.3098 17.8883C68.4148 19.0708 70.0554 19.7389 71.6734 19.6473C73.3097 19.5641 74.8939 18.7269 75.8721 17.4119C76.5881 16.4577 77.0208 15.278 77.0137 14.0786C77.0715 12.1576 76.0299 10.2591 74.4077 9.24004C73.0955 8.39439 71.4197 8.11814 69.9158 8.55083Z" fill="black"/>
<path d="M135.446 0.0658579C136.224 -0.084951 137.063 0.0179373 137.749 0.429491C138.729 0.983396 139.347 2.10389 139.308 3.22721C139.316 4.10528 138.926 4.97208 138.272 5.55558C137.411 6.36883 136.076 6.59856 134.979 6.16869C133.735 5.70921 132.878 4.40126 132.94 3.0764C132.967 1.6571 134.048 0.342106 135.446 0.0658579ZM135.438 0.499962C134.027 0.82554 133.068 2.38578 133.426 3.79098C133.701 5.10034 135.022 6.09258 136.359 5.95586C137.394 5.87271 138.338 5.15954 138.707 4.19126C139.112 3.19197 138.855 1.96436 138.076 1.21736C137.407 0.53097 136.362 0.25754 135.438 0.499962Z" fill="black"/>
<path d="M134.913 1.3493C135.532 1.3803 136.164 1.27883 136.775 1.41272C137.47 1.59031 137.76 2.51349 137.368 3.09135C137.212 3.3676 136.902 3.48035 136.637 3.61848C136.958 4.08077 137.277 4.54729 137.591 5.01663C137.388 5.01381 137.186 5.0124 136.988 5.00958C136.672 4.55857 136.404 4.07372 136.071 3.63539C135.868 3.54519 135.626 3.60438 135.412 3.58324C135.408 4.05681 135.405 4.52897 135.41 5.00113C135.285 5.00536 135.034 5.01381 134.909 5.01804C134.911 3.79466 134.904 2.57268 134.913 1.3493ZM135.417 1.77776C135.406 2.23301 135.403 2.68826 135.409 3.1435C135.923 3.08994 136.613 3.33941 136.957 2.81651C137.241 2.41764 136.899 1.82287 136.432 1.78904C136.094 1.76226 135.754 1.77917 135.417 1.77776Z" fill="black"/>
<path d="M3.7348 6.90155C5.51209 5.49494 7.7996 4.73385 10.0702 4.91144C12.4183 5.04111 14.6847 6.16019 16.2421 7.91775C17.5232 9.34409 18.3464 11.1876 18.5113 13.1016C18.772 15.5061 18.0067 18.0022 16.4464 19.8514C14.9144 21.6963 12.6269 22.9098 10.2295 23.079C7.91094 23.3017 5.55156 22.5462 3.7348 21.1015C3.73339 22.8478 3.73621 24.5941 3.7348 26.339C3.77145 27.1424 3.11606 27.8964 2.32114 27.9852C1.67703 28.0176 1.03011 27.9852 0.383179 27.9951C0.393045 20.4786 0.383179 12.9621 0.388816 5.44702C1.50227 5.43575 2.61431 5.44702 3.72775 5.43997C3.7348 5.92764 3.73762 6.41389 3.7348 6.90155ZM8.14491 8.46461C6.78058 8.74931 5.52901 9.54846 4.71295 10.6816C3.71507 12.0375 3.36694 13.8599 3.83064 15.4822C4.23938 17.0283 5.34719 18.3673 6.7834 19.0663C8.07303 19.7189 9.6234 19.8401 10.9948 19.375C12.7847 18.8155 14.2111 17.2905 14.7044 15.4878C15.3076 13.3906 14.5254 11.0058 12.8369 9.63866C11.5543 8.57173 9.77984 8.11366 8.14491 8.46461Z" fill="black"/>
<path d="M23.2301 7.63477C24.796 6.00969 26.9919 5.00195 29.2484 4.9047C31.4682 4.76094 33.6937 5.51076 35.4386 6.87649C35.433 6.39588 35.4104 5.91385 35.4738 5.43606C36.5859 5.45438 37.6979 5.43183 38.81 5.44874C38.8057 11.1541 38.817 16.8581 38.8043 22.5634C37.7064 22.5705 36.607 22.5423 35.5091 22.5789C35.3709 22.1054 35.4611 21.6078 35.4175 21.123C33.6599 22.5479 31.3541 23.2653 29.099 23.0906C26.8622 22.9609 24.703 21.9292 23.1667 20.3041C21.66 18.7552 20.7693 16.6452 20.6509 14.4916C20.5099 11.9829 21.4557 9.42192 23.2301 7.63477ZM28.7339 8.48324C26.0292 9.03292 24.0138 11.7771 24.3196 14.5241C24.469 16.0787 25.2837 17.5473 26.5268 18.493C27.9179 19.5599 29.8248 19.9504 31.5091 19.4246C33.2808 18.9201 34.7494 17.4881 35.3005 15.7305C36.0602 13.4952 35.2046 10.8511 33.2934 9.46984C32.0095 8.51002 30.3026 8.11679 28.7339 8.48324Z" fill="black"/>
<path d="M49.5649 4.94972C51.3718 4.74253 53.2435 5.07657 54.8489 5.93773C57.8467 7.49515 59.8228 10.8214 59.6889 14.2069C59.6804 16.9933 59.6973 19.7783 59.679 22.5634C58.4683 22.5605 57.2562 22.5605 56.0455 22.5634C56.0272 19.6867 56.0483 16.8101 56.0342 13.9348C56.0328 11.8785 54.7432 9.90386 52.8729 9.05962C51.4592 8.38873 49.7496 8.39155 48.3345 9.0568C46.8349 9.74037 45.689 11.1428 45.3155 12.7481C45.1139 13.598 45.1746 14.4761 45.1675 15.3414C45.1619 17.7487 45.176 20.1561 45.1605 22.5634C43.9498 22.562 42.7391 22.5605 41.5284 22.5648C41.4804 19.7332 41.5213 16.9017 41.5072 14.0701C41.5002 12.2633 42.0188 10.4564 43.0266 8.9525C44.4825 6.75238 46.9321 5.21892 49.5649 4.94972Z" fill="black"/>
<path d="M90.2167 5.01585C92.0151 4.72269 93.9051 4.94397 95.5626 5.71493C97.5401 6.62119 99.1651 8.26318 100.056 10.2477C101.096 12.5408 101.123 15.2694 100.131 17.5851C99.2159 19.7486 97.4287 21.5273 95.2568 22.4237C93.8741 23.0044 92.3435 23.2186 90.8537 23.0664C88.6043 22.8677 86.4634 21.7556 84.9722 20.0686C83.6093 18.5464 82.7777 16.5506 82.6903 14.5069C82.5423 12.2265 83.309 9.90234 84.7833 8.15465C86.1462 6.50984 88.1082 5.37244 90.2167 5.01585ZM90.5028 8.70151C88.3337 9.20749 86.5832 11.1638 86.3703 13.3879C86.0617 15.6627 87.4133 18.0009 89.4894 18.9467C90.7706 19.5513 92.2899 19.6063 93.619 19.1214C95.2483 18.5295 96.5506 17.1158 97.0031 15.4414C97.2046 14.7719 97.1947 14.063 97.1567 13.3724C96.9664 11.5175 95.7191 9.83187 94.0334 9.05527C92.9397 8.54365 91.674 8.42667 90.5028 8.70151Z" fill="black"/>
<path d="M105.208 7.86146C107.07 5.81919 109.917 4.94676 112.617 4.92139C112.615 6.14336 112.622 7.36534 112.613 8.58872C111.063 8.5704 109.429 8.99041 108.272 10.07C107.252 11.0115 106.808 12.4308 106.806 13.7895C106.805 16.7141 106.809 19.6386 106.804 22.5632C105.591 22.5646 104.379 22.5519 103.167 22.5717C103.128 19.6457 103.163 16.7169 103.15 13.7909C103.142 11.6669 103.745 9.4527 105.208 7.86146Z" fill="black"/>
<path d="M114.96 8.44504C116.402 6.55076 118.619 5.2555 120.985 4.96798C123.429 4.6283 125.968 5.35839 127.893 6.89185C127.891 6.40982 127.891 5.92639 127.894 5.44436C129.02 5.44013 130.146 5.44436 131.273 5.44154C131.281 11.1483 131.28 16.8551 131.273 22.5619C130.146 22.5605 129.022 22.5633 127.896 22.5605C127.893 22.077 127.89 21.5936 127.891 21.1102C126.123 22.5168 123.838 23.2652 121.579 23.0932C119.766 22.9946 117.999 22.3082 116.572 21.1891C114.681 19.7162 113.398 17.4654 113.147 15.075C112.851 12.741 113.519 10.3041 114.96 8.44504ZM121.183 8.48027C118.826 8.96794 116.937 11.1075 116.763 13.5105C116.588 15.2751 117.333 17.0862 118.668 18.2476C120.011 19.4442 121.953 19.9446 123.701 19.4921C125.087 19.1539 126.328 18.2702 127.101 17.0707C127.917 15.8248 128.209 14.2462 127.877 12.7931C127.54 11.2089 126.475 9.80232 125.05 9.037C123.883 8.39571 122.482 8.18429 121.183 8.48027Z" fill="black"/>
</svg>
