<svg width="112" height="36" viewBox="0 0 112 36" fill="none" xmlns="http://www.w3.org/2000/svg">
<path d="M34.9992 17.9805C34.6263 -0.459889 10.0905 -7.331 0.647558 9.94779C1.06454 10.2495 1.6421 10.6574 2.05908 10.9592C1.35945 12.4182 0.864839 13.967 0.589284 15.5615C0.402967 16.587 0.309352 17.6271 0.309571 18.6694C0.309571 28.2431 8.07939 36 17.6622 36C27.245 36 35.0148 28.2431 35.0148 18.6746C35.0148 18.4415 35.0148 18.211 34.9992 17.9805ZM4.59333 21.0742C4.36542 22.9506 4.50786 23.5346 4.50657 23.7599L4.08959 23.9115C3.9316 23.6032 3.53016 22.5155 3.35405 21.0547C2.89951 15.4747 6.70931 10.4463 12.5056 9.51009C17.8228 8.7331 22.9055 12.0275 24.0956 16.6415L23.6773 16.793C23.3257 16.3253 22.9414 15.883 22.5274 15.4695C16.116 9.03872 6.03981 11.9887 4.59333 21.0742ZM21.1055 24.195C20.6511 24.8532 20.0372 25.3854 19.3213 25.7419C18.6054 26.0984 17.8108 26.2676 17.0117 26.2336C16.2126 26.1997 15.4352 25.9636 14.7521 25.5477C14.0691 25.1317 13.5026 24.5493 13.1057 23.8549C12.7088 23.1606 12.4944 22.3769 12.4826 21.5772C12.4708 20.7775 12.662 19.9879 13.0382 19.2821C13.4144 18.5763 13.9634 17.9775 14.6339 17.5415C15.3044 17.1055 16.0745 16.8467 16.8722 16.7891C17.6446 16.7478 18.4114 16.9405 19.0724 17.342C19.7334 17.7436 20.2579 18.3353 20.5771 19.0397C20.8964 19.7442 20.9956 20.5286 20.8619 21.2903C20.7281 22.0521 20.3675 22.7558 19.8274 23.3093L21.1055 24.195ZM30.9732 24.3776C28.47 30.0522 23.3173 33.0216 17.815 32.9529C7.26097 32.4349 4.1906 20.2622 11.2443 15.8658L11.5551 16.1753C11.4347 16.3333 11.0255 16.6648 10.365 17.9533C9.5971 19.5189 9.36271 21.0794 9.45854 22.0558C10.0076 30.5637 21.9278 32.2938 26.0342 23.8843C31.2594 12.3474 17.4032 0.631768 5.10096 9.5826L4.81736 9.299C8.05479 4.23049 14.3742 1.9617 20.4114 3.47811C29.6445 5.78575 34.6017 15.4009 30.9732 24.3776Z" fill="black"/>
<path d="M50.3808 11.2179V19.2183C50.3808 22.4 48.4384 24.7866 44.8682 24.7866C41.2979 24.7866 39.3555 22.4052 39.3555 19.2183V11.2179H42.2549V18.9878C42.2549 20.9302 43.1705 22.0348 44.8682 22.0348C46.5659 22.0348 47.4814 20.9302 47.4814 18.9878V11.2179H50.3808ZM61.1615 20.7049C61.1615 23.0099 59.3485 24.6662 56.4322 24.6662H51.8157V11.328H56.26C58.8344 11.328 60.5334 12.566 60.5334 14.5473C60.5334 16.0521 59.8277 16.9663 58.7787 17.404C60.189 17.9427 61.1615 18.9139 61.1615 20.7049ZM54.7151 13.8856V16.7047H56.2406C57.1367 16.7047 57.7479 16.1867 57.7479 15.2945C57.7479 14.4023 57.1367 13.8856 56.2406 13.8856H54.7151ZM56.317 22.1138C57.5563 22.1138 58.2594 21.5427 58.2594 20.4381C58.2594 19.3335 57.5537 18.7547 56.317 18.7547H54.7151V22.1073L56.317 22.1138ZM62.2855 11.3332H65.1875V24.6714H62.2855V11.3332ZM72.1907 16.7229C74.479 17.5232 75.6626 18.5527 75.6626 20.6078C75.6626 23.3699 73.5453 24.8941 71.046 24.8941C68.7383 24.8941 66.9642 23.8659 66.2209 21.961L68.5286 20.2465C68.9481 21.4469 70.0359 22.1889 71.1185 22.1889C72.0729 22.1889 72.7592 21.6709 72.7592 20.8176C72.7592 20.0173 72.2412 19.5226 70.3363 18.8363C68.276 18.0942 66.7506 17.0647 66.7506 14.8555C66.7506 12.7214 68.5247 11.1001 71.0991 11.1001C73.14 11.1001 74.725 11.9198 75.467 13.5385L73.1594 15.1391C72.7243 14.1523 72.0379 13.5968 70.989 13.5968C70.1084 13.5968 69.4609 14.0759 69.4609 14.7623C69.4609 15.5393 70.1874 16.0184 72.1907 16.7229ZM90.051 17.9997C90.051 21.9235 87.2279 24.8954 83.2614 24.8954C79.1978 24.8954 76.4706 21.9804 76.4706 18.4568C76.4706 16.1712 77.3667 14.5136 78.6837 13.4285L78.2253 12.9713C79.2367 11.9237 81.0859 11.104 83.2614 11.104C87.2253 11.104 90.051 14.1148 90.051 17.9997ZM87.114 17.9997C87.114 15.6001 85.5885 13.8467 83.2614 13.8467C81.9069 13.8467 80.8955 14.3647 80.283 15.0277L80.7401 15.4849C80.0344 16.0754 79.405 16.8951 79.405 18.361C79.405 20.3811 80.836 22.1527 83.2589 22.1527C85.5859 22.1527 87.1114 20.3993 87.1114 17.9997H87.114ZM94.1314 14.0759V17.1619H99.7969V19.3711H94.1288V24.6662H91.2307V11.328H100.367V14.0759H94.1314ZM111.873 14.0759H108.135V24.6662H105.237V14.0759H101.482V11.3332H111.876L111.873 14.0759Z" fill="black"/>
</svg>
